<svg xmlns="http://www.w3.org/2000/svg" xmlns:xlink="http://www.w3.org/1999/xlink" width="500" zoomAndPan="magnify" viewBox="0 0 375 374.999991" height="500" preserveAspectRatio="xMidYMid meet" version="1.0"><defs><clipPath id="f7b91ede80"><path d="M 0 37.910156 L 337.292969 37.910156 L 337.292969 162 L 0 162 Z M 0 37.910156 " clip-rule="nonzero"/></clipPath><clipPath id="5eb8b78dc5"><path d="M 39 128 L 337.292969 128 L 337.292969 337.160156 L 39 337.160156 Z M 39 128 " clip-rule="nonzero"/></clipPath></defs><g clip-path="url(#f7b91ede80)"><path fill="#ffffff" d="M 63.351562 106.078125 L 117.96875 160.667969 L 120.933594 153.894531 C 124.746094 146.703125 129.398438 139.929688 135.328125 134.003906 C 149.726562 119.613281 168.78125 111.578125 189.097656 111.578125 C 209.417969 111.578125 228.472656 119.621094 242.871094 134.003906 C 250.0625 141.191406 255.570312 149.238281 259.382812 158.542969 L 261.078125 161.933594 L 337.292969 161.933594 L 335.597656 154.742188 C 328.402344 122.152344 310.195312 92.539062 283.945312 71.375 C 257.265625 49.796875 223.8125 37.949219 189.523438 37.949219 C 143.121094 37.949219 99.386719 59.5 71.132812 95.773438 C 35.199219 75.808594 -2.457031 40.136719 -2.457031 40.136719 L 63.421875 105.984375 Z M 63.351562 106.078125 " fill-opacity="1" fill-rule="nonzero"/></g><g clip-path="url(#5eb8b78dc5)"><path fill="#f2ae1c" d="M 247.953125 325.714844 C 251.339844 324.445312 254.730469 322.75 258.113281 321.054688 C 277.167969 311.324219 294.527344 296.9375 307.652344 280.007812 C 321.203125 262.65625 330.9375 242.347656 335.597656 221.183594 L 337.292969 213.988281 L 261.078125 213.988281 L 258.960938 216.105469 C 255.148438 225.414062 249.648438 233.457031 242.445312 240.648438 C 236.515625 246.574219 229.746094 251.226562 222.542969 255.035156 C 220.425781 256.304688 218.308594 257.152344 215.765625 258 C 208.570312 260.539062 200.945312 262.234375 193.328125 262.65625 C 189.9375 262.65625 186.132812 262.65625 182.746094 262.234375 C 164.960938 260.964844 148.03125 253.347656 135.324219 240.648438 C 124.199219 229.53125 116.972656 215.164062 114.492188 199.828125 C 132.40625 210.816406 149.738281 227.242188 149.738281 227.242188 L 113.726562 191.246094 L 113.726562 191.140625 L 51.074219 128.511719 L 48.109375 137.394531 C 42.601562 153.476562 39.644531 170.40625 39.644531 187.335938 C 39.644531 227.113281 55.308594 264.773438 83.679688 293.132812 C 112.046875 321.488281 149.726562 337.144531 189.53125 337.144531 C 209.847656 337.136719 229.320312 333.328125 247.953125 325.714844 Z M 247.953125 325.714844 " fill-opacity="1" fill-rule="nonzero"/></g><path fill="#f2ae1c" d="M 324.804688 152.066406 L 267.34375 152.066406 L 266.964844 151.246094 C 262.816406 142.3125 257.222656 134.390625 249.855469 127.019531 C 233.515625 110.695312 211.9375 101.703125 189.097656 101.703125 C 166.261719 101.703125 144.679688 110.695312 128.34375 127.019531 C 123.785156 131.578125 119.792969 136.621094 116.144531 142.433594 L 115.203125 143.933594 L 76.375 105.117188 L 78.933594 101.832031 C 105.273438 68.003906 146.625 47.816406 189.523438 47.816406 C 221.507812 47.816406 252.835938 58.910156 277.726562 79.046875 C 300.15625 97.125 316.699219 122.425781 324.324219 150.277344 Z M 269.148438 149.246094 L 321.09375 149.246094 C 313.417969 122.664062 297.441406 98.574219 275.945312 81.25 C 251.550781 61.515625 220.863281 50.644531 189.515625 50.644531 C 147.472656 50.644531 106.960938 70.429688 81.152344 103.574219 L 80.125 104.894531 L 114.703125 139.457031 C 118.207031 134.082031 122.023438 129.351562 126.339844 125.03125 C 143.214844 108.167969 165.5 98.882812 189.09375 98.882812 C 212.683594 98.882812 234.972656 108.167969 251.84375 125.03125 C 259.230469 132.410156 264.898438 140.339844 269.148438 149.246094 Z M 269.148438 149.246094 " fill-opacity="1" fill-rule="nonzero"/><path fill="#fff0cb" d="M 189.523438 327.265625 C 152.304688 327.265625 117.191406 312.660156 90.65625 286.144531 C 64.128906 259.628906 49.515625 224.53125 49.515625 187.335938 C 49.515625 174.625 51.289062 161.789062 54.792969 149.179688 L 55.441406 146.847656 L 103.730469 195.105469 L 104.75 201.40625 C 107.558594 218.824219 115.9375 235.242188 128.34375 247.636719 C 142.59375 261.882812 161.566406 270.558594 181.761719 272.066406 C 185.726562 272.53125 189.765625 272.53125 193.335938 272.53125 L 193.886719 272.515625 C 202.101562 272.058594 210.566406 270.304688 219.0625 267.3125 C 221.316406 266.566406 224.28125 265.476562 227.359375 263.667969 C 236.054688 259.039062 243.265625 253.800781 249.429688 247.636719 C 256.460938 240.613281 261.867188 233.097656 265.953125 224.664062 L 266.339844 223.871094 L 324.796875 223.871094 L 324.304688 225.65625 C 319.542969 242.859375 311.09375 259.550781 299.855469 273.9375 C 287.679688 289.640625 271.25 303.253906 253.609375 312.265625 C 250.550781 313.792969 247.398438 315.371094 244.476562 316.464844 L 244.183594 316.578125 C 226.859375 323.667969 208.457031 327.265625 189.523438 327.265625 Z M 56.890625 152.28125 C 53.875 163.882812 52.34375 175.667969 52.34375 187.335938 C 52.34375 223.785156 66.660156 258.164062 92.652344 284.148438 C 118.652344 310.132812 153.054688 324.445312 189.523438 324.445312 C 208.089844 324.445312 226.132812 320.921875 243.140625 313.964844 L 243.472656 313.835938 C 246.273438 312.789062 249.222656 311.3125 252.339844 309.753906 C 269.613281 300.933594 285.695312 287.59375 297.628906 272.207031 C 308.25 258.601562 316.332031 242.90625 321.070312 226.695312 L 268.097656 226.695312 C 263.921875 235.09375 258.457031 242.605469 251.425781 249.640625 C 245.058594 256.003906 237.636719 261.402344 228.738281 266.136719 C 225.480469 268.054688 222.335938 269.207031 219.972656 269.992188 C 211.25 273.070312 202.519531 274.871094 194.03125 275.34375 L 193.328125 275.367188 C 189.679688 275.367188 185.550781 275.367188 181.480469 274.886719 C 160.667969 273.328125 141.066406 264.363281 126.339844 249.644531 C 113.515625 236.835938 104.859375 219.863281 101.957031 201.875 L 101.089844 196.472656 Z M 56.890625 152.28125 " fill-opacity="1" fill-rule="nonzero"/></svg>